# xmcd
#
# Track frame offsets:
#	150
#	15322
#	28942
#	46152
#	57890
#	66276
#	75686
#	89594
#	103059
#	117391
#	130652
#	144019
#	158231
#	170143
#	181867
#	195137
#	205604
#	219600
#
# Disc length: 3090 seconds
#
# Revision: 0
# Processed by: cddbd v1.5.1PL0 Copyright (c) Steve Scherf et al.
# Submitted via: dBpowerAMP V4.0
#
DISCID=ef0c1012
DTITLE=Various Artist - Blues History - The Thirties - CD5
DYEAR=2005
DGENRE=Blues
TTITLE0=Love Me Baby
TTITLE1=Pearl Harbor Blues
TTITLE2=The Army Blues
TTITLE3=You Gonna Miss Me
TTITLE4=On Monday
TTITLE5=Fox Chase
TTITLE6=Dirt Road Blues
TTITLE7=She's Gone
TTITLE8=Somebody's Been Worryin'
TTITLE9=The Honeydripper
TTITLE10=Big Billy Blues
TTITLE11=Blues (That Mean Old Twister)
TTITLE12=Bobby Sox Blues
TTITLE13=I Got Love For Sale
TTITLE14=Keep What You Got
TTITLE15=San Francisco Blues
TTITLE16=All Alone Blues
TTITLE17=Hollywood Bed
EXTD=
EXTT0=
EXTT1=
EXTT2=
EXTT3=
EXTT4=
EXTT5=
EXTT6=
EXTT7=
EXTT8=
EXTT9=
EXTT10=
EXTT11=
EXTT12=
EXTT13=
EXTT14=
EXTT15=
EXTT16=
EXTT17=
PLAYORDER=
